solid housingshaft
   facet normal 7.889431e-001 -6.144663e-001 0.000000e+000
      outer loop
         vertex 4.000000e+000 -3.000000e+000 5.500000e+001
         vertex 4.000000e+000 -3.000000e+000 7.500000e+001
         vertex 3.830222e+000 -3.213938e+000 7.500000e+001
      endloop
   endfacet
   facet normal 8.128481e-001 -5.824757e-001 0.000000e+000
      outer loop
         vertex 4.330127e+000 -2.500000e+000 5.500000e+001
         vertex 4.000000e+000 -3.000000e+000 5.500000e+001
         vertex 3.830222e+000 -3.213938e+000 -2.980232e-006
      endloop
   endfacet
   facet normal 9.182422e-001 3.960194e-001 0.000000e+000
      outer loop
         vertex 4.330127e+000 2.500000e+000 -2.980232e-006
         vertex 4.698463e+000 1.710101e+000 5.500000e+001
         vertex 4.698463e+000 1.710101e+000 -2.980232e-006
      endloop
   endfacet
   facet normal 9.579706e-001 2.868663e-001 0.000000e+000
      outer loop
         vertex 4.698463e+000 1.710101e+000 -2.980232e-006
         vertex 4.698463e+000 1.710101e+000 5.500000e+001
         vertex 4.924039e+000 8.682409e-001 5.500000e+001
      endloop
   endfacet
   facet normal 9.730600e-001 2.305519e-001 0.000000e+000
      outer loop
         vertex 4.698463e+000 1.710101e+000 -2.980232e-006
         vertex 4.924039e+000 8.682409e-001 5.500000e+001
         vertex 4.924039e+000 8.682409e-001 -2.980232e-006
      endloop
   endfacet
   facet normal 9.932307e-001 1.161583e-001 0.000000e+000
      outer loop
         vertex 4.924039e+000 8.682409e-001 -2.980232e-006
         vertex 4.924039e+000 8.682409e-001 5.500000e+001
         vertex 5.000000e+000 9.184852e-016 5.500000e+001
      endloop
   endfacet
   facet normal 9.983120e-001 5.807914e-002 0.000000e+000
      outer loop
         vertex 4.924039e+000 8.682409e-001 -2.980232e-006
         vertex 5.000000e+000 9.184852e-016 5.500000e+001
         vertex 5.000000e+000 9.184852e-016 -2.980232e-006
      endloop
   endfacet
   facet normal 9.983120e-001 -5.807914e-002 0.000000e+000
      outer loop
         vertex 5.000000e+000 9.184852e-016 -2.980232e-006
         vertex 5.000000e+000 9.184852e-016 5.500000e+001
         vertex 4.924039e+000 -8.682409e-001 5.500000e+001
      endloop
   endfacet
   facet normal 9.932307e-001 -1.161583e-001 0.000000e+000
      outer loop
         vertex 5.000000e+000 9.184852e-016 -2.980232e-006
         vertex 4.924039e+000 -8.682409e-001 5.500000e+001
         vertex 4.924039e+000 -8.682409e-001 -2.980232e-006
      endloop
   endfacet
   facet normal 9.730600e-001 -2.305519e-001 0.000000e+000
      outer loop
         vertex 4.924039e+000 -8.682409e-001 -2.980232e-006
         vertex 4.924039e+000 -8.682409e-001 5.500000e+001
         vertex 4.698463e+000 -1.710101e+000 5.500000e+001
      endloop
   endfacet
   facet normal 9.579706e-001 -2.868663e-001 0.000000e+000
      outer loop
         vertex 4.924039e+000 -8.682409e-001 -2.980232e-006
         vertex 4.698463e+000 -1.710101e+000 5.500000e+001
         vertex 4.698463e+000 -1.710101e+000 -2.980232e-006
      endloop
   endfacet
   facet normal 9.182422e-001 -3.960194e-001 0.000000e+000
      outer loop
         vertex 4.698463e+000 -1.710101e+000 -2.980232e-006
         vertex 4.698463e+000 -1.710101e+000 5.500000e+001
         vertex 4.330127e+000 -2.500000e+000 5.500000e+001
      endloop
   endfacet
   facet normal 8.936031e-001 -4.488580e-001 0.000000e+000
      outer loop
         vertex 4.698463e+000 -1.710101e+000 -2.980232e-006
         vertex 4.330127e+000 -2.500000e+000 5.500000e+001
         vertex 4.330127e+000 -2.500000e+000 -2.980232e-006
      endloop
   endfacet
   facet normal 8.355240e-001 -5.494540e-001 0.000000e+000
      outer loop
         vertex 4.330127e+000 -2.500000e+000 -2.980232e-006
         vertex 4.330127e+000 -2.500000e+000 5.500000e+001
         vertex 3.830222e+000 -3.213938e+000 -2.980232e-006
      endloop
   endfacet
   facet normal 7.889431e-001 6.144662e-001 0.000000e+000
      outer loop
         vertex 3.830222e+000 3.213938e+000 7.500000e+001
         vertex 4.000000e+000 3.000000e+000 7.500000e+001
         vertex 4.000000e+000 3.000000e+000 5.500000e+001
      endloop
   endfacet
   facet normal 7.776208e-001 -6.287335e-001 0.000000e+000
      outer loop
         vertex 4.000000e+000 -3.000000e+000 5.500000e+001
         vertex 3.830222e+000 -3.213938e+000 7.500000e+001
         vertex 3.830222e+000 -3.213938e+000 -2.980232e-006
      endloop
   endfacet
   facet normal 7.274188e-001 -6.861938e-001 0.000000e+000
      outer loop
         vertex 3.830222e+000 -3.213938e+000 -2.980232e-006
         vertex 3.830222e+000 -3.213938e+000 7.500000e+001
         vertex 3.213938e+000 -3.830222e+000 7.500000e+001
      endloop
   endfacet
   facet normal 6.861938e-001 -7.274188e-001 0.000000e+000
      outer loop
         vertex 3.830222e+000 -3.213938e+000 -2.980232e-006
         vertex 3.213938e+000 -3.830222e+000 7.500000e+001
         vertex 3.213938e+000 -3.830222e+000 -2.980232e-006
      endloop
   endfacet
   facet normal 5.972114e-001 -8.020839e-001 0.000000e+000
      outer loop
         vertex 3.213938e+000 -3.830222e+000 -2.980232e-006
         vertex 3.213938e+000 -3.830222e+000 7.500000e+001
         vertex 2.500000e+000 -4.330127e+000 7.500000e+001
      endloop
   endfacet
   facet normal 5.494540e-001 -8.355240e-001 0.000000e+000
      outer loop
         vertex 3.213938e+000 -3.830222e+000 -2.980232e-006
         vertex 2.500000e+000 -4.330127e+000 7.500000e+001
         vertex 2.500000e+000 -4.330127e+000 -2.980232e-006
      endloop
   endfacet
   facet normal 4.488580e-001 -8.936031e-001 0.000000e+000
      outer loop
         vertex 2.500000e+000 -4.330127e+000 -2.980232e-006
         vertex 2.500000e+000 -4.330127e+000 7.500000e+001
         vertex 1.710101e+000 -4.698463e+000 7.500000e+001
      endloop
   endfacet
   facet normal 3.960194e-001 -9.182422e-001 0.000000e+000
      outer loop
         vertex 2.500000e+000 -4.330127e+000 -2.980232e-006
         vertex 1.710101e+000 -4.698463e+000 7.500000e+001
         vertex 1.710101e+000 -4.698463e+000 -2.980232e-006
      endloop
   endfacet
   facet normal 2.868663e-001 -9.579706e-001 0.000000e+000
      outer loop
         vertex 1.710101e+000 -4.698463e+000 -2.980232e-006
         vertex 1.710101e+000 -4.698463e+000 7.500000e+001
         vertex 8.682409e-001 -4.924039e+000 7.500000e+001
      endloop
   endfacet
   facet normal 2.305519e-001 -9.730600e-001 0.000000e+000
      outer loop
         vertex 1.710101e+000 -4.698463e+000 -2.980232e-006
         vertex 8.682409e-001 -4.924039e+000 7.500000e+001
         vertex 8.682409e-001 -4.924039e+000 -2.980232e-006
      endloop
   endfacet
   facet normal 1.161583e-001 -9.932307e-001 0.000000e+000
      outer loop
         vertex 8.682409e-001 -4.924039e+000 -2.980232e-006
         vertex 8.682409e-001 -4.924039e+000 7.500000e+001
         vertex 0.000000e+000 -5.000000e+000 7.500000e+001
      endloop
   endfacet
   facet normal 5.807914e-002 -9.983120e-001 0.000000e+000
      outer loop
         vertex 8.682409e-001 -4.924039e+000 -2.980232e-006
         vertex 0.000000e+000 -5.000000e+000 7.500000e+001
         vertex 0.000000e+000 -5.000000e+000 -2.980232e-006
      endloop
   endfacet
   facet normal -5.807914e-002 -9.983120e-001 -0.000000e+000
      outer loop
         vertex 0.000000e+000 -5.000000e+000 -2.980232e-006
         vertex 0.000000e+000 -5.000000e+000 7.500000e+001
         vertex -8.682409e-001 -4.924039e+000 7.500000e+001
      endloop
   endfacet
   facet normal -1.161583e-001 -9.932307e-001 -0.000000e+000
      outer loop
         vertex 0.000000e+000 -5.000000e+000 -2.980232e-006
         vertex -8.682409e-001 -4.924039e+000 7.500000e+001
         vertex -8.682409e-001 -4.924039e+000 -2.980232e-006
      endloop
   endfacet
   facet normal -2.305519e-001 -9.730600e-001 -0.000000e+000
      outer loop
         vertex -8.682409e-001 -4.924039e+000 -2.980232e-006
         vertex -8.682409e-001 -4.924039e+000 7.500000e+001
         vertex -1.710101e+000 -4.698463e+000 7.500000e+001
      endloop
   endfacet
   facet normal -2.868663e-001 -9.579706e-001 -0.000000e+000
      outer loop
         vertex -8.682409e-001 -4.924039e+000 -2.980232e-006
         vertex -1.710101e+000 -4.698463e+000 7.500000e+001
         vertex -1.710101e+000 -4.698463e+000 -2.980232e-006
      endloop
   endfacet
   facet normal -3.960194e-001 -9.182422e-001 -0.000000e+000
      outer loop
         vertex -1.710101e+000 -4.698463e+000 -2.980232e-006
         vertex -1.710101e+000 -4.698463e+000 7.500000e+001
         vertex -2.500000e+000 -4.330127e+000 7.500000e+001
      endloop
   endfacet
   facet normal -4.488580e-001 -8.936031e-001 -0.000000e+000
      outer loop
         vertex -1.710101e+000 -4.698463e+000 -2.980232e-006
         vertex -2.500000e+000 -4.330127e+000 7.500000e+001
         vertex -2.500000e+000 -4.330127e+000 -2.980232e-006
      endloop
   endfacet
   facet normal -5.494540e-001 -8.355240e-001 -0.000000e+000
      outer loop
         vertex -2.500000e+000 -4.330127e+000 -2.980232e-006
         vertex -2.500000e+000 -4.330127e+000 7.500000e+001
         vertex -3.213938e+000 -3.830222e+000 7.500000e+001
      endloop
   endfacet
   facet normal -5.972114e-001 -8.020839e-001 -0.000000e+000
      outer loop
         vertex -2.500000e+000 -4.330127e+000 -2.980232e-006
         vertex -3.213938e+000 -3.830222e+000 7.500000e+001
         vertex -3.213938e+000 -3.830222e+000 -2.980232e-006
      endloop
   endfacet
   facet normal -6.861938e-001 -7.274188e-001 -0.000000e+000
      outer loop
         vertex -3.213938e+000 -3.830222e+000 -2.980232e-006
         vertex -3.213938e+000 -3.830222e+000 7.500000e+001
         vertex -3.830222e+000 -3.213938e+000 7.500000e+001
      endloop
   endfacet
   facet normal -7.274188e-001 -6.861938e-001 -0.000000e+000
      outer loop
         vertex -3.213938e+000 -3.830222e+000 -2.980232e-006
         vertex -3.830222e+000 -3.213938e+000 7.500000e+001
         vertex -3.830222e+000 -3.213938e+000 -2.980232e-006
      endloop
   endfacet
   facet normal -8.020839e-001 -5.972114e-001 -0.000000e+000
      outer loop
         vertex -3.830222e+000 -3.213938e+000 -2.980232e-006
         vertex -3.830222e+000 -3.213938e+000 7.500000e+001
         vertex -4.330127e+000 -2.500000e+000 7.500000e+001
      endloop
   endfacet
   facet normal -8.355240e-001 -5.494540e-001 -0.000000e+000
      outer loop
         vertex -3.830222e+000 -3.213938e+000 -2.980232e-006
         vertex -4.330127e+000 -2.500000e+000 7.500000e+001
         vertex -4.330127e+000 -2.500000e+000 -2.980232e-006
      endloop
   endfacet
   facet normal -8.936031e-001 -4.488580e-001 -0.000000e+000
      outer loop
         vertex -4.330127e+000 -2.500000e+000 -2.980232e-006
         vertex -4.330127e+000 -2.500000e+000 7.500000e+001
         vertex -4.698463e+000 -1.710101e+000 7.500000e+001
      endloop
   endfacet
   facet normal -9.182422e-001 -3.960194e-001 -0.000000e+000
      outer loop
         vertex -4.330127e+000 -2.500000e+000 -2.980232e-006
         vertex -4.698463e+000 -1.710101e+000 7.500000e+001
         vertex -4.698463e+000 -1.710101e+000 -2.980232e-006
      endloop
   endfacet
   facet normal -9.579706e-001 -2.868663e-001 -0.000000e+000
      outer loop
         vertex -4.698463e+000 -1.710101e+000 -2.980232e-006
         vertex -4.698463e+000 -1.710101e+000 7.500000e+001
         vertex -4.924039e+000 -8.682409e-001 7.500000e+001
      endloop
   endfacet
   facet normal -9.730600e-001 -2.305519e-001 -0.000000e+000
      outer loop
         vertex -4.698463e+000 -1.710101e+000 -2.980232e-006
         vertex -4.924039e+000 -8.682409e-001 7.500000e+001
         vertex -4.924039e+000 -8.682409e-001 -2.980232e-006
      endloop
   endfacet
   facet normal -9.932307e-001 -1.161583e-001 -0.000000e+000
      outer loop
         vertex -4.924039e+000 -8.682409e-001 -2.980232e-006
         vertex -4.924039e+000 -8.682409e-001 7.500000e+001
         vertex -5.000000e+000 -3.061617e-016 7.500000e+001
      endloop
   endfacet
   facet normal -9.983120e-001 -5.807914e-002 -0.000000e+000
      outer loop
         vertex -4.924039e+000 -8.682409e-001 -2.980232e-006
         vertex -5.000000e+000 -3.061617e-016 7.500000e+001
         vertex -5.000000e+000 -3.061617e-016 -2.980232e-006
      endloop
   endfacet
   facet normal -9.983120e-001 5.807914e-002 0.000000e+000
      outer loop
         vertex -5.000000e+000 -3.061617e-016 -2.980232e-006
         vertex -5.000000e+000 -3.061617e-016 7.500000e+001
         vertex -4.924039e+000 8.682409e-001 7.500000e+001
      endloop
   endfacet
   facet normal -9.932307e-001 1.161583e-001 0.000000e+000
      outer loop
         vertex -5.000000e+000 -3.061617e-016 -2.980232e-006
         vertex -4.924039e+000 8.682409e-001 7.500000e+001
         vertex -4.924039e+000 8.682409e-001 -2.980232e-006
      endloop
   endfacet
   facet normal -9.730600e-001 2.305519e-001 0.000000e+000
      outer loop
         vertex -4.924039e+000 8.682409e-001 -2.980232e-006
         vertex -4.924039e+000 8.682409e-001 7.500000e+001
         vertex -4.698463e+000 1.710101e+000 7.500000e+001
      endloop
   endfacet
   facet normal -9.579706e-001 2.868663e-001 0.000000e+000
      outer loop
         vertex -4.924039e+000 8.682409e-001 -2.980232e-006
         vertex -4.698463e+000 1.710101e+000 7.500000e+001
         vertex -4.698463e+000 1.710101e+000 -2.980232e-006
      endloop
   endfacet
   facet normal -9.182422e-001 3.960194e-001 0.000000e+000
      outer loop
         vertex -4.698463e+000 1.710101e+000 -2.980232e-006
         vertex -4.698463e+000 1.710101e+000 7.500000e+001
         vertex -4.330127e+000 2.500000e+000 7.500000e+001
      endloop
   endfacet
   facet normal -8.936031e-001 4.488580e-001 0.000000e+000
      outer loop
         vertex -4.698463e+000 1.710101e+000 -2.980232e-006
         vertex -4.330127e+000 2.500000e+000 7.500000e+001
         vertex -4.330127e+000 2.500000e+000 -2.980232e-006
      endloop
   endfacet
   facet normal -8.355240e-001 5.494540e-001 0.000000e+000
      outer loop
         vertex -4.330127e+000 2.500000e+000 -2.980232e-006
         vertex -4.330127e+000 2.500000e+000 7.500000e+001
         vertex -3.830222e+000 3.213938e+000 7.500000e+001
      endloop
   endfacet
   facet normal -8.020839e-001 5.972114e-001 0.000000e+000
      outer loop
         vertex -4.330127e+000 2.500000e+000 -2.980232e-006
         vertex -3.830222e+000 3.213938e+000 7.500000e+001
         vertex -3.830222e+000 3.213938e+000 -2.980232e-006
      endloop
   endfacet
   facet normal -7.274188e-001 6.861938e-001 0.000000e+000
      outer loop
         vertex -3.830222e+000 3.213938e+000 -2.980232e-006
         vertex -3.830222e+000 3.213938e+000 7.500000e+001
         vertex -3.213938e+000 3.830222e+000 7.500000e+001
      endloop
   endfacet
   facet normal -6.861938e-001 7.274188e-001 0.000000e+000
      outer loop
         vertex -3.830222e+000 3.213938e+000 -2.980232e-006
         vertex -3.213938e+000 3.830222e+000 7.500000e+001
         vertex -3.213938e+000 3.830222e+000 -2.980232e-006
      endloop
   endfacet
   facet normal -5.972114e-001 8.020839e-001 0.000000e+000
      outer loop
         vertex -3.213938e+000 3.830222e+000 -2.980232e-006
         vertex -3.213938e+000 3.830222e+000 7.500000e+001
         vertex -2.500000e+000 4.330127e+000 7.500000e+001
      endloop
   endfacet
   facet normal -5.494540e-001 8.355240e-001 0.000000e+000
      outer loop
         vertex -3.213938e+000 3.830222e+000 -2.980232e-006
         vertex -2.500000e+000 4.330127e+000 7.500000e+001
         vertex -2.500000e+000 4.330127e+000 -2.980232e-006
      endloop
   endfacet
   facet normal -4.488580e-001 8.936031e-001 0.000000e+000
      outer loop
         vertex -2.500000e+000 4.330127e+000 -2.980232e-006
         vertex -2.500000e+000 4.330127e+000 7.500000e+001
         vertex -1.710101e+000 4.698463e+000 7.500000e+001
      endloop
   endfacet
   facet normal -3.960194e-001 9.182422e-001 0.000000e+000
      outer loop
         vertex -2.500000e+000 4.330127e+000 -2.980232e-006
         vertex -1.710101e+000 4.698463e+000 7.500000e+001
         vertex -1.710101e+000 4.698463e+000 -2.980232e-006
      endloop
   endfacet
   facet normal -2.868663e-001 9.579706e-001 0.000000e+000
      outer loop
         vertex -1.710101e+000 4.698463e+000 -2.980232e-006
         vertex -1.710101e+000 4.698463e+000 7.500000e+001
         vertex -8.682409e-001 4.924039e+000 7.500000e+001
      endloop
   endfacet
   facet normal -2.305519e-001 9.730600e-001 0.000000e+000
      outer loop
         vertex -1.710101e+000 4.698463e+000 -2.980232e-006
         vertex -8.682409e-001 4.924039e+000 7.500000e+001
         vertex -8.682409e-001 4.924039e+000 -2.980232e-006
      endloop
   endfacet
   facet normal -1.161583e-001 9.932307e-001 0.000000e+000
      outer loop
         vertex -8.682409e-001 4.924039e+000 -2.980232e-006
         vertex -8.682409e-001 4.924039e+000 7.500000e+001
         vertex -6.123234e-016 5.000000e+000 7.500000e+001
      endloop
   endfacet
   facet normal -5.807914e-002 9.983120e-001 0.000000e+000
      outer loop
         vertex -8.682409e-001 4.924039e+000 -2.980232e-006
         vertex -6.123234e-016 5.000000e+000 7.500000e+001
         vertex -6.123234e-016 5.000000e+000 -2.980232e-006
      endloop
   endfacet
   facet normal 5.807914e-002 9.983120e-001 0.000000e+000
      outer loop
         vertex -6.123234e-016 5.000000e+000 -2.980232e-006
         vertex -6.123234e-016 5.000000e+000 7.500000e+001
         vertex 8.682409e-001 4.924039e+000 7.500000e+001
      endloop
   endfacet
   facet normal 1.161583e-001 9.932307e-001 0.000000e+000
      outer loop
         vertex -6.123234e-016 5.000000e+000 -2.980232e-006
         vertex 8.682409e-001 4.924039e+000 7.500000e+001
         vertex 8.682409e-001 4.924039e+000 -2.980232e-006
      endloop
   endfacet
   facet normal 2.305519e-001 9.730600e-001 0.000000e+000
      outer loop
         vertex 8.682409e-001 4.924039e+000 -2.980232e-006
         vertex 8.682409e-001 4.924039e+000 7.500000e+001
         vertex 1.710101e+000 4.698463e+000 7.500000e+001
      endloop
   endfacet
   facet normal 2.868663e-001 9.579706e-001 0.000000e+000
      outer loop
         vertex 8.682409e-001 4.924039e+000 -2.980232e-006
         vertex 1.710101e+000 4.698463e+000 7.500000e+001
         vertex 1.710101e+000 4.698463e+000 -2.980232e-006
      endloop
   endfacet
   facet normal 3.960194e-001 9.182422e-001 0.000000e+000
      outer loop
         vertex 1.710101e+000 4.698463e+000 -2.980232e-006
         vertex 1.710101e+000 4.698463e+000 7.500000e+001
         vertex 2.500000e+000 4.330127e+000 7.500000e+001
      endloop
   endfacet
   facet normal 4.488580e-001 8.936031e-001 0.000000e+000
      outer loop
         vertex 1.710101e+000 4.698463e+000 -2.980232e-006
         vertex 2.500000e+000 4.330127e+000 7.500000e+001
         vertex 2.500000e+000 4.330127e+000 -2.980232e-006
      endloop
   endfacet
   facet normal 5.494540e-001 8.355240e-001 0.000000e+000
      outer loop
         vertex 2.500000e+000 4.330127e+000 -2.980232e-006
         vertex 2.500000e+000 4.330127e+000 7.500000e+001
         vertex 3.213938e+000 3.830222e+000 7.500000e+001
      endloop
   endfacet
   facet normal 5.972114e-001 8.020839e-001 0.000000e+000
      outer loop
         vertex 2.500000e+000 4.330127e+000 -2.980232e-006
         vertex 3.213938e+000 3.830222e+000 7.500000e+001
         vertex 3.213938e+000 3.830222e+000 -2.980232e-006
      endloop
   endfacet
   facet normal 6.861938e-001 7.274188e-001 0.000000e+000
      outer loop
         vertex 3.213938e+000 3.830222e+000 -2.980232e-006
         vertex 3.213938e+000 3.830222e+000 7.500000e+001
         vertex 3.830222e+000 3.213938e+000 7.500000e+001
      endloop
   endfacet
   facet normal 7.274188e-001 6.861938e-001 0.000000e+000
      outer loop
         vertex 3.213938e+000 3.830222e+000 -2.980232e-006
         vertex 3.830222e+000 3.213938e+000 7.500000e+001
         vertex 3.830222e+000 3.213938e+000 -2.980232e-006
      endloop
   endfacet
   facet normal 7.776208e-001 6.287335e-001 0.000000e+000
      outer loop
         vertex 3.830222e+000 3.213938e+000 -2.980232e-006
         vertex 3.830222e+000 3.213938e+000 7.500000e+001
         vertex 4.000000e+000 3.000000e+000 5.500000e+001
      endloop
   endfacet
   facet normal 8.128481e-001 5.824757e-001 0.000000e+000
      outer loop
         vertex 3.830222e+000 3.213938e+000 -2.980232e-006
         vertex 4.000000e+000 3.000000e+000 5.500000e+001
         vertex 4.330127e+000 2.500000e+000 -2.980232e-006
      endloop
   endfacet
   facet normal 8.453668e-001 5.341863e-001 0.000000e+000
      outer loop
         vertex 4.330127e+000 2.500000e+000 -2.980232e-006
         vertex 4.000000e+000 3.000000e+000 5.500000e+001
         vertex 4.330127e+000 2.500000e+000 5.500000e+001
      endloop
   endfacet
   facet normal 8.936031e-001 4.488580e-001 0.000000e+000
      outer loop
         vertex 4.330127e+000 2.500000e+000 -2.980232e-006
         vertex 4.330127e+000 2.500000e+000 5.500000e+001
         vertex 4.698463e+000 1.710101e+000 5.500000e+001
      endloop
   endfacet
   facet normal 0.000000e+000 0.000000e+000 1.000000e+000
      outer loop
         vertex 2.500000e+000 -4.330127e+000 7.500000e+001
         vertex 3.213938e+000 -3.830222e+000 7.500000e+001
         vertex -3.830222e+000 -3.213938e+000 7.500000e+001
      endloop
   endfacet
   facet normal 0.000000e+000 0.000000e+000 1.000000e+000
      outer loop
         vertex 4.000000e+000 3.000000e+000 7.500000e+001
         vertex 3.830222e+000 3.213938e+000 7.500000e+001
         vertex 4.000000e+000 -3.000000e+000 7.500000e+001
      endloop
   endfacet
   facet normal 0.000000e+000 0.000000e+000 1.000000e+000
      outer loop
         vertex 4.000000e+000 -3.000000e+000 7.500000e+001
         vertex 3.830222e+000 3.213938e+000 7.500000e+001
         vertex -3.830222e+000 -3.213938e+000 7.500000e+001
      endloop
   endfacet
   facet normal 0.000000e+000 0.000000e+000 1.000000e+000
      outer loop
         vertex 4.000000e+000 -3.000000e+000 7.500000e+001
         vertex -3.830222e+000 -3.213938e+000 7.500000e+001
         vertex 3.830222e+000 -3.213938e+000 7.500000e+001
      endloop
   endfacet
   facet normal 0.000000e+000 0.000000e+000 1.000000e+000
      outer loop
         vertex 3.830222e+000 -3.213938e+000 7.500000e+001
         vertex -3.830222e+000 -3.213938e+000 7.500000e+001
         vertex 3.213938e+000 -3.830222e+000 7.500000e+001
      endloop
   endfacet
   facet normal 0.000000e+000 0.000000e+000 1.000000e+000
      outer loop
         vertex 2.500000e+000 4.330127e+000 7.500000e+001
         vertex 1.710101e+000 4.698463e+000 7.500000e+001
         vertex -3.213938e+000 3.830222e+000 7.500000e+001
      endloop
   endfacet
   facet normal 0.000000e+000 0.000000e+000 1.000000e+000
      outer loop
         vertex -3.830222e+000 3.213938e+000 7.500000e+001
         vertex -4.330127e+000 2.500000e+000 7.500000e+001
         vertex 3.830222e+000 3.213938e+000 7.500000e+001
      endloop
   endfacet
   facet normal 0.000000e+000 0.000000e+000 1.000000e+000
      outer loop
         vertex 3.830222e+000 3.213938e+000 7.500000e+001
         vertex -4.330127e+000 2.500000e+000 7.500000e+001
         vertex -4.698463e+000 1.710101e+000 7.500000e+001
      endloop
   endfacet
   facet normal 0.000000e+000 0.000000e+000 1.000000e+000
      outer loop
         vertex -4.698463e+000 1.710101e+000 7.500000e+001
         vertex -4.924039e+000 8.682409e-001 7.500000e+001
         vertex 3.830222e+000 3.213938e+000 7.500000e+001
      endloop
   endfacet
   facet normal 0.000000e+000 0.000000e+000 1.000000e+000
      outer loop
         vertex 3.830222e+000 3.213938e+000 7.500000e+001
         vertex -4.924039e+000 8.682409e-001 7.500000e+001
         vertex -5.000000e+000 -3.061617e-016 7.500000e+001
      endloop
   endfacet
   facet normal 0.000000e+000 0.000000e+000 1.000000e+000
      outer loop
         vertex 3.830222e+000 3.213938e+000 7.500000e+001
         vertex -5.000000e+000 -3.061617e-016 7.500000e+001
         vertex -4.924039e+000 -8.682409e-001 7.500000e+001
      endloop
   endfacet
   facet normal 0.000000e+000 0.000000e+000 1.000000e+000
      outer loop
         vertex -4.924039e+000 -8.682409e-001 7.500000e+001
         vertex -4.698463e+000 -1.710101e+000 7.500000e+001
         vertex 3.830222e+000 3.213938e+000 7.500000e+001
      endloop
   endfacet
   facet normal 0.000000e+000 0.000000e+000 1.000000e+000
      outer loop
         vertex 3.830222e+000 3.213938e+000 7.500000e+001
         vertex -4.698463e+000 -1.710101e+000 7.500000e+001
         vertex -4.330127e+000 -2.500000e+000 7.500000e+001
      endloop
   endfacet
   facet normal 0.000000e+000 0.000000e+000 1.000000e+000
      outer loop
         vertex 3.830222e+000 3.213938e+000 7.500000e+001
         vertex -4.330127e+000 -2.500000e+000 7.500000e+001
         vertex -3.830222e+000 -3.213938e+000 7.500000e+001
      endloop
   endfacet
   facet normal 0.000000e+000 0.000000e+000 1.000000e+000
      outer loop
         vertex 2.500000e+000 -4.330127e+000 7.500000e+001
         vertex -3.830222e+000 -3.213938e+000 7.500000e+001
         vertex 1.710101e+000 -4.698463e+000 7.500000e+001
      endloop
   endfacet
   facet normal 0.000000e+000 0.000000e+000 1.000000e+000
      outer loop
         vertex 1.710101e+000 -4.698463e+000 7.500000e+001
         vertex -3.830222e+000 -3.213938e+000 7.500000e+001
         vertex -3.213938e+000 -3.830222e+000 7.500000e+001
      endloop
   endfacet
   facet normal 0.000000e+000 0.000000e+000 1.000000e+000
      outer loop
         vertex 1.710101e+000 -4.698463e+000 7.500000e+001
         vertex -3.213938e+000 -3.830222e+000 7.500000e+001
         vertex -2.500000e+000 -4.330127e+000 7.500000e+001
      endloop
   endfacet
   facet normal 0.000000e+000 0.000000e+000 1.000000e+000
      outer loop
         vertex -3.830222e+000 3.213938e+000 7.500000e+001
         vertex 3.830222e+000 3.213938e+000 7.500000e+001
         vertex -3.213938e+000 3.830222e+000 7.500000e+001
      endloop
   endfacet
   facet normal 0.000000e+000 0.000000e+000 1.000000e+000
      outer loop
         vertex -3.213938e+000 3.830222e+000 7.500000e+001
         vertex 3.830222e+000 3.213938e+000 7.500000e+001
         vertex 3.213938e+000 3.830222e+000 7.500000e+001
      endloop
   endfacet
   facet normal 0.000000e+000 0.000000e+000 1.000000e+000
      outer loop
         vertex -3.213938e+000 3.830222e+000 7.500000e+001
         vertex 3.213938e+000 3.830222e+000 7.500000e+001
         vertex 2.500000e+000 4.330127e+000 7.500000e+001
      endloop
   endfacet
   facet normal 0.000000e+000 0.000000e+000 1.000000e+000
      outer loop
         vertex -3.213938e+000 3.830222e+000 7.500000e+001
         vertex -8.682409e-001 4.924039e+000 7.500000e+001
         vertex -2.500000e+000 4.330127e+000 7.500000e+001
      endloop
   endfacet
   facet normal 0.000000e+000 0.000000e+000 1.000000e+000
      outer loop
         vertex -2.500000e+000 4.330127e+000 7.500000e+001
         vertex -8.682409e-001 4.924039e+000 7.500000e+001
         vertex -1.710101e+000 4.698463e+000 7.500000e+001
      endloop
   endfacet
   facet normal 0.000000e+000 0.000000e+000 1.000000e+000
      outer loop
         vertex -2.500000e+000 -4.330127e+000 7.500000e+001
         vertex -1.710101e+000 -4.698463e+000 7.500000e+001
         vertex 1.710101e+000 -4.698463e+000 7.500000e+001
      endloop
   endfacet
   facet normal 0.000000e+000 0.000000e+000 1.000000e+000
      outer loop
         vertex 1.710101e+000 -4.698463e+000 7.500000e+001
         vertex -1.710101e+000 -4.698463e+000 7.500000e+001
         vertex -8.682409e-001 -4.924039e+000 7.500000e+001
      endloop
   endfacet
   facet normal 0.000000e+000 0.000000e+000 1.000000e+000
      outer loop
         vertex 1.710101e+000 -4.698463e+000 7.500000e+001
         vertex -8.682409e-001 -4.924039e+000 7.500000e+001
         vertex 8.682409e-001 -4.924039e+000 7.500000e+001
      endloop
   endfacet
   facet normal 0.000000e+000 0.000000e+000 1.000000e+000
      outer loop
         vertex 8.682409e-001 -4.924039e+000 7.500000e+001
         vertex -8.682409e-001 -4.924039e+000 7.500000e+001
         vertex 8.673617e-016 -5.000000e+000 7.500000e+001
      endloop
   endfacet
   facet normal 0.000000e+000 0.000000e+000 1.000000e+000
      outer loop
         vertex 1.710101e+000 4.698463e+000 7.500000e+001
         vertex 8.682409e-001 4.924039e+000 7.500000e+001
         vertex -3.213938e+000 3.830222e+000 7.500000e+001
      endloop
   endfacet
   facet normal 0.000000e+000 0.000000e+000 1.000000e+000
      outer loop
         vertex -3.213938e+000 3.830222e+000 7.500000e+001
         vertex 8.682409e-001 4.924039e+000 7.500000e+001
         vertex -8.673617e-016 5.000000e+000 7.500000e+001
      endloop
   endfacet
   facet normal 0.000000e+000 0.000000e+000 1.000000e+000
      outer loop
         vertex -3.213938e+000 3.830222e+000 7.500000e+001
         vertex -8.673617e-016 5.000000e+000 7.500000e+001
         vertex -8.682409e-001 4.924039e+000 7.500000e+001
      endloop
   endfacet
   facet normal 0.000000e+000 0.000000e+000 -1.000000e+000
      outer loop
         vertex 1.710101e+000 -4.698463e+000 -2.980232e-006
         vertex 8.682409e-001 -4.924039e+000 -2.980232e-006
         vertex 0.000000e+000 0.000000e+000 -2.980232e-006
      endloop
   endfacet
   facet normal 0.000000e+000 0.000000e+000 -1.000000e+000
      outer loop
         vertex 0.000000e+000 0.000000e+000 -2.980232e-006
         vertex 8.682409e-001 -4.924039e+000 -2.980232e-006
         vertex 1.224647e-015 -5.000000e+000 -2.980232e-006
      endloop
   endfacet
   facet normal 0.000000e+000 0.000000e+000 -1.000000e+000
      outer loop
         vertex 0.000000e+000 0.000000e+000 -2.980232e-006
         vertex 1.224647e-015 -5.000000e+000 -2.980232e-006
         vertex -8.682409e-001 -4.924039e+000 -2.980232e-006
      endloop
   endfacet
   facet normal 0.000000e+000 0.000000e+000 -1.000000e+000
      outer loop
         vertex 3.830222e+000 -3.213938e+000 -2.980232e-006
         vertex 3.213938e+000 -3.830222e+000 -2.980232e-006
         vertex 0.000000e+000 0.000000e+000 -2.980232e-006
      endloop
   endfacet
   facet normal 0.000000e+000 0.000000e+000 -1.000000e+000
      outer loop
         vertex 0.000000e+000 0.000000e+000 -2.980232e-006
         vertex 3.213938e+000 -3.830222e+000 -2.980232e-006
         vertex 2.500000e+000 -4.330127e+000 -2.980232e-006
      endloop
   endfacet
   facet normal 0.000000e+000 0.000000e+000 -1.000000e+000
      outer loop
         vertex 0.000000e+000 0.000000e+000 -2.980232e-006
         vertex 2.500000e+000 -4.330127e+000 -2.980232e-006
         vertex 1.710101e+000 -4.698463e+000 -2.980232e-006
      endloop
   endfacet
   facet normal 0.000000e+000 0.000000e+000 -1.000000e+000
      outer loop
         vertex 4.924039e+000 -8.682409e-001 -2.980232e-006
         vertex 4.698463e+000 -1.710101e+000 -2.980232e-006
         vertex 0.000000e+000 0.000000e+000 -2.980232e-006
      endloop
   endfacet
   facet normal 0.000000e+000 0.000000e+000 -1.000000e+000
      outer loop
         vertex 0.000000e+000 0.000000e+000 -2.980232e-006
         vertex 4.698463e+000 -1.710101e+000 -2.980232e-006
         vertex 4.330127e+000 -2.500000e+000 -2.980232e-006
      endloop
   endfacet
   facet normal 0.000000e+000 0.000000e+000 -1.000000e+000
      outer loop
         vertex 0.000000e+000 0.000000e+000 -2.980232e-006
         vertex 4.330127e+000 -2.500000e+000 -2.980232e-006
         vertex 3.830222e+000 -3.213938e+000 -2.980232e-006
      endloop
   endfacet
   facet normal 0.000000e+000 0.000000e+000 -1.000000e+000
      outer loop
         vertex 4.698463e+000 1.710101e+000 -2.980232e-006
         vertex 4.924039e+000 8.682409e-001 -2.980232e-006
         vertex 0.000000e+000 0.000000e+000 -2.980232e-006
      endloop
   endfacet
   facet normal 0.000000e+000 0.000000e+000 -1.000000e+000
      outer loop
         vertex 0.000000e+000 0.000000e+000 -2.980232e-006
         vertex 4.924039e+000 8.682409e-001 -2.980232e-006
         vertex 5.000000e+000 9.184852e-016 -2.980232e-006
      endloop
   endfacet
   facet normal 0.000000e+000 0.000000e+000 -1.000000e+000
      outer loop
         vertex 0.000000e+000 0.000000e+000 -2.980232e-006
         vertex 5.000000e+000 9.184852e-016 -2.980232e-006
         vertex 4.924039e+000 -8.682409e-001 -2.980232e-006
      endloop
   endfacet
   facet normal 0.000000e+000 0.000000e+000 -1.000000e+000
      outer loop
         vertex 3.213938e+000 3.830222e+000 -2.980232e-006
         vertex 3.830222e+000 3.213938e+000 -2.980232e-006
         vertex 0.000000e+000 0.000000e+000 -2.980232e-006
      endloop
   endfacet
   facet normal 0.000000e+000 0.000000e+000 -1.000000e+000
      outer loop
         vertex 0.000000e+000 0.000000e+000 -2.980232e-006
         vertex 3.830222e+000 3.213938e+000 -2.980232e-006
         vertex 4.330127e+000 2.500000e+000 -2.980232e-006
      endloop
   endfacet
   facet normal 0.000000e+000 0.000000e+000 -1.000000e+000
      outer loop
         vertex 0.000000e+000 0.000000e+000 -2.980232e-006
         vertex 4.330127e+000 2.500000e+000 -2.980232e-006
         vertex 4.698463e+000 1.710101e+000 -2.980232e-006
      endloop
   endfacet
   facet normal 0.000000e+000 0.000000e+000 -1.000000e+000
      outer loop
         vertex 8.682409e-001 4.924039e+000 -2.980232e-006
         vertex 1.710101e+000 4.698463e+000 -2.980232e-006
         vertex 0.000000e+000 0.000000e+000 -2.980232e-006
      endloop
   endfacet
   facet normal 0.000000e+000 0.000000e+000 -1.000000e+000
      outer loop
         vertex 0.000000e+000 0.000000e+000 -2.980232e-006
         vertex 1.710101e+000 4.698463e+000 -2.980232e-006
         vertex 2.500000e+000 4.330127e+000 -2.980232e-006
      endloop
   endfacet
   facet normal 0.000000e+000 0.000000e+000 -1.000000e+000
      outer loop
         vertex 0.000000e+000 0.000000e+000 -2.980232e-006
         vertex 2.500000e+000 4.330127e+000 -2.980232e-006
         vertex 3.213938e+000 3.830222e+000 -2.980232e-006
      endloop
   endfacet
   facet normal 0.000000e+000 0.000000e+000 -1.000000e+000
      outer loop
         vertex -1.710101e+000 4.698463e+000 -2.980232e-006
         vertex -8.682409e-001 4.924039e+000 -2.980232e-006
         vertex 0.000000e+000 0.000000e+000 -2.980232e-006
      endloop
   endfacet
   facet normal 0.000000e+000 0.000000e+000 -1.000000e+000
      outer loop
         vertex 0.000000e+000 0.000000e+000 -2.980232e-006
         vertex -8.682409e-001 4.924039e+000 -2.980232e-006
         vertex -6.123234e-016 5.000000e+000 -2.980232e-006
      endloop
   endfacet
   facet normal 0.000000e+000 0.000000e+000 -1.000000e+000
      outer loop
         vertex 0.000000e+000 0.000000e+000 -2.980232e-006
         vertex -6.123234e-016 5.000000e+000 -2.980232e-006
         vertex 8.682409e-001 4.924039e+000 -2.980232e-006
      endloop
   endfacet
   facet normal 0.000000e+000 0.000000e+000 -1.000000e+000
      outer loop
         vertex -3.830222e+000 3.213938e+000 -2.980232e-006
         vertex -3.213938e+000 3.830222e+000 -2.980232e-006
         vertex 0.000000e+000 0.000000e+000 -2.980232e-006
      endloop
   endfacet
   facet normal 0.000000e+000 0.000000e+000 -1.000000e+000
      outer loop
         vertex 0.000000e+000 0.000000e+000 -2.980232e-006
         vertex -3.213938e+000 3.830222e+000 -2.980232e-006
         vertex -2.500000e+000 4.330127e+000 -2.980232e-006
      endloop
   endfacet
   facet normal 0.000000e+000 0.000000e+000 -1.000000e+000
      outer loop
         vertex 0.000000e+000 0.000000e+000 -2.980232e-006
         vertex -2.500000e+000 4.330127e+000 -2.980232e-006
         vertex -1.710101e+000 4.698463e+000 -2.980232e-006
      endloop
   endfacet
   facet normal 0.000000e+000 0.000000e+000 -1.000000e+000
      outer loop
         vertex -4.924039e+000 8.682409e-001 -2.980232e-006
         vertex -4.698463e+000 1.710101e+000 -2.980232e-006
         vertex 0.000000e+000 0.000000e+000 -2.980232e-006
      endloop
   endfacet
   facet normal 0.000000e+000 0.000000e+000 -1.000000e+000
      outer loop
         vertex 0.000000e+000 0.000000e+000 -2.980232e-006
         vertex -4.698463e+000 1.710101e+000 -2.980232e-006
         vertex -4.330127e+000 2.500000e+000 -2.980232e-006
      endloop
   endfacet
   facet normal 0.000000e+000 0.000000e+000 -1.000000e+000
      outer loop
         vertex 0.000000e+000 0.000000e+000 -2.980232e-006
         vertex -4.330127e+000 2.500000e+000 -2.980232e-006
         vertex -3.830222e+000 3.213938e+000 -2.980232e-006
      endloop
   endfacet
   facet normal 0.000000e+000 0.000000e+000 -1.000000e+000
      outer loop
         vertex -4.698463e+000 -1.710101e+000 -2.980232e-006
         vertex -4.924039e+000 -8.682409e-001 -2.980232e-006
         vertex 0.000000e+000 0.000000e+000 -2.980232e-006
      endloop
   endfacet
   facet normal 0.000000e+000 0.000000e+000 -1.000000e+000
      outer loop
         vertex 0.000000e+000 0.000000e+000 -2.980232e-006
         vertex -4.924039e+000 -8.682409e-001 -2.980232e-006
         vertex -5.000000e+000 -3.061617e-016 -2.980232e-006
      endloop
   endfacet
   facet normal 0.000000e+000 0.000000e+000 -1.000000e+000
      outer loop
         vertex 0.000000e+000 0.000000e+000 -2.980232e-006
         vertex -5.000000e+000 -3.061617e-016 -2.980232e-006
         vertex -4.924039e+000 8.682409e-001 -2.980232e-006
      endloop
   endfacet
   facet normal 0.000000e+000 0.000000e+000 -1.000000e+000
      outer loop
         vertex -3.213938e+000 -3.830222e+000 -2.980232e-006
         vertex -3.830222e+000 -3.213938e+000 -2.980232e-006
         vertex 0.000000e+000 0.000000e+000 -2.980232e-006
      endloop
   endfacet
   facet normal 0.000000e+000 0.000000e+000 -1.000000e+000
      outer loop
         vertex 0.000000e+000 0.000000e+000 -2.980232e-006
         vertex -3.830222e+000 -3.213938e+000 -2.980232e-006
         vertex -4.330127e+000 -2.500000e+000 -2.980232e-006
      endloop
   endfacet
   facet normal 0.000000e+000 0.000000e+000 -1.000000e+000
      outer loop
         vertex 0.000000e+000 0.000000e+000 -2.980232e-006
         vertex -4.330127e+000 -2.500000e+000 -2.980232e-006
         vertex -4.698463e+000 -1.710101e+000 -2.980232e-006
      endloop
   endfacet
   facet normal 0.000000e+000 0.000000e+000 -1.000000e+000
      outer loop
         vertex -8.682409e-001 -4.924039e+000 -2.980232e-006
         vertex -1.710101e+000 -4.698463e+000 -2.980232e-006
         vertex 0.000000e+000 0.000000e+000 -2.980232e-006
      endloop
   endfacet
   facet normal 0.000000e+000 0.000000e+000 -1.000000e+000
      outer loop
         vertex 0.000000e+000 0.000000e+000 -2.980232e-006
         vertex -1.710101e+000 -4.698463e+000 -2.980232e-006
         vertex -2.500000e+000 -4.330127e+000 -2.980232e-006
      endloop
   endfacet
   facet normal 0.000000e+000 0.000000e+000 -1.000000e+000
      outer loop
         vertex 0.000000e+000 0.000000e+000 -2.980232e-006
         vertex -2.500000e+000 -4.330127e+000 -2.980232e-006
         vertex -3.213938e+000 -3.830222e+000 -2.980232e-006
      endloop
   endfacet
   facet normal 1.000000e+000 0.000000e+000 0.000000e+000
      outer loop
         vertex 4.000000e+000 -3.000000e+000 5.500000e+001
         vertex 4.000000e+000 3.000000e+000 5.500000e+001
         vertex 4.000000e+000 -3.000000e+000 7.500000e+001
      endloop
   endfacet
   facet normal 1.000000e+000 0.000000e+000 0.000000e+000
      outer loop
         vertex 4.000000e+000 -3.000000e+000 7.500000e+001
         vertex 4.000000e+000 3.000000e+000 5.500000e+001
         vertex 4.000000e+000 3.000000e+000 7.500000e+001
      endloop
   endfacet
   facet normal 0.000000e+000 0.000000e+000 1.000000e+000
      outer loop
         vertex 4.000000e+000 3.000000e+000 5.500000e+001
         vertex 4.000000e+000 -3.000000e+000 5.500000e+001
         vertex 4.330127e+000 2.500000e+000 5.500000e+001
      endloop
   endfacet
   facet normal 0.000000e+000 0.000000e+000 1.000000e+000
      outer loop
         vertex 4.330127e+000 2.500000e+000 5.500000e+001
         vertex 4.000000e+000 -3.000000e+000 5.500000e+001
         vertex 4.330127e+000 -2.500000e+000 5.500000e+001
      endloop
   endfacet
   facet normal 0.000000e+000 0.000000e+000 1.000000e+000
      outer loop
         vertex 4.924039e+000 -8.682409e-001 5.500000e+001
         vertex 5.000000e+000 9.184852e-016 5.500000e+001
         vertex 4.698463e+000 -1.710101e+000 5.500000e+001
      endloop
   endfacet
   facet normal 0.000000e+000 0.000000e+000 1.000000e+000
      outer loop
         vertex 4.698463e+000 -1.710101e+000 5.500000e+001
         vertex 5.000000e+000 9.184852e-016 5.500000e+001
         vertex 4.924039e+000 8.682409e-001 5.500000e+001
      endloop
   endfacet
   facet normal 0.000000e+000 0.000000e+000 1.000000e+000
      outer loop
         vertex 4.698463e+000 -1.710101e+000 5.500000e+001
         vertex 4.924039e+000 8.682409e-001 5.500000e+001
         vertex 4.330127e+000 -2.500000e+000 5.500000e+001
      endloop
   endfacet
   facet normal 0.000000e+000 0.000000e+000 1.000000e+000
      outer loop
         vertex 4.330127e+000 -2.500000e+000 5.500000e+001
         vertex 4.924039e+000 8.682409e-001 5.500000e+001
         vertex 4.698463e+000 1.710101e+000 5.500000e+001
      endloop
   endfacet
   facet normal 0.000000e+000 0.000000e+000 1.000000e+000
      outer loop
         vertex 4.330127e+000 -2.500000e+000 5.500000e+001
         vertex 4.698463e+000 1.710101e+000 5.500000e+001
         vertex 4.330127e+000 2.500000e+000 5.500000e+001
      endloop
   endfacet
endsolid